<svg id="Camada_1" data-name="Camada 1" xmlns="http://www.w3.org/2000/svg" viewBox="0 0 460 300"><defs><style>.cls-1{fill:#fff;}</style></defs><rect class="cls-1" y="10.05" width="65.71" height="279.89" rx="6.08"/><rect class="cls-1" x="98.57" y="10.05" width="65.71" height="279.89" rx="6.08"/><rect class="cls-1" x="197.14" y="10.05" width="65.71" height="279.89" rx="6.08"/><path class="cls-1" d="M460,15.93V67.69a6,6,0,0,1-6.08,5.86H400.37a6,6,0,0,1-6.08-5.86h0V15.93a6,6,0,0,1,6.08-5.88h53.55A6,6,0,0,1,460,15.93Z"/><path class="cls-1" d="M460,111.19V284.07a6,6,0,0,1-6.08,5.88H400.37a6,6,0,0,1-6.08-5.88V111.19a6,6,0,0,1,6.08-5.88h53.55A6,6,0,0,1,460,111.19Z"/><path class="cls-1" d="M361.43,15.93V188.81a6,6,0,0,1-6.09,5.88H301.8a6,6,0,0,1-6.09-5.88V15.93a6,6,0,0,1,6.09-5.88h53.54A6,6,0,0,1,361.43,15.93Z"/><path class="cls-1" d="M361.43,232.31v51.76a6,6,0,0,1-6.09,5.88H301.8a6,6,0,0,1-6.09-5.88V232.31a6,6,0,0,1,6.09-5.86h53.54a6,6,0,0,1,6.09,5.86Z"/><path class="cls-1" d="M361.43,232.31v51.76a6,6,0,0,1-6.09,5.88H301.8a6,6,0,0,1-6.09-5.88V232.31a6,6,0,0,1,6.09-5.86h53.54a6,6,0,0,1,6.09,5.86Z"/><path class="cls-1" d="M460,15.93V67.69a6,6,0,0,1-6.08,5.86H400.37a6,6,0,0,1-6.08-5.86h0V15.93a6,6,0,0,1,6.08-5.88h53.55A6,6,0,0,1,460,15.93Z"/></svg>