<svg id="Camada_1" data-name="Camada 1" xmlns="http://www.w3.org/2000/svg" viewBox="0 0 460 279.9"><defs><style>.cls-1{fill:#fff;}</style></defs><rect class="cls-1" width="65.71" height="279.89" rx="6.08"/><rect class="cls-1" x="98.57" width="65.71" height="279.89" rx="6.08"/><rect class="cls-1" x="197.14" width="65.71" height="279.89" rx="6.08"/><path class="cls-1" d="M460,5.88V57.63a6,6,0,0,1-6.08,5.87H400.37a6,6,0,0,1-6.08-5.86h0V5.88A6,6,0,0,1,400.37,0h53.55A6,6,0,0,1,460,5.88Z"/><path class="cls-1" d="M460,101.14V274a6,6,0,0,1-6.08,5.88H400.37a6,6,0,0,1-6.08-5.88V101.14a6,6,0,0,1,6.08-5.88h53.55A6,6,0,0,1,460,101.14Z"/><path class="cls-1" d="M361.43,5.88V178.76a6,6,0,0,1-6.09,5.87H301.8a6,6,0,0,1-6.09-5.87V5.88A6,6,0,0,1,301.8,0h53.54A6,6,0,0,1,361.43,5.88Z"/><path class="cls-1" d="M361.43,222.26V274a6,6,0,0,1-6.09,5.87H301.8a6,6,0,0,1-6.09-5.87V222.26a6,6,0,0,1,6.09-5.86h53.54a6,6,0,0,1,6.09,5.86Z"/><path class="cls-1" d="M361.43,222.26V274a6,6,0,0,1-6.09,5.87H301.8a6,6,0,0,1-6.09-5.87V222.26a6,6,0,0,1,6.09-5.86h53.54a6,6,0,0,1,6.09,5.86Z"/><path class="cls-1" d="M460,5.88V57.63a6,6,0,0,1-6.08,5.87H400.37a6,6,0,0,1-6.08-5.86h0V5.88A6,6,0,0,1,400.37,0h53.55A6,6,0,0,1,460,5.88Z"/></svg>