<svg id="Camada_1" data-name="Camada 1" xmlns="http://www.w3.org/2000/svg" viewBox="0 0 460 300"><defs><style>.cls-1{fill:#fff;}</style></defs><rect class="cls-1" x="41" y="35" width="54" height="230" rx="5"/><rect class="cls-1" x="122" y="35" width="54" height="230" rx="5"/><rect class="cls-1" x="203" y="35" width="54" height="230" rx="5"/><path class="cls-1" d="M419,39.83V82.36a4.91,4.91,0,0,1-5,4.82H370a4.91,4.91,0,0,1-5-4.82V39.83A4.92,4.92,0,0,1,370,35h44A4.92,4.92,0,0,1,419,39.83Z"/><path class="cls-1" d="M419,118.11V260.17a4.92,4.92,0,0,1-5,4.83H370a4.92,4.92,0,0,1-5-4.83V118.11a4.92,4.92,0,0,1,5-4.83h44A4.92,4.92,0,0,1,419,118.11Z"/><path class="cls-1" d="M338,39.83V181.89a4.92,4.92,0,0,1-5,4.83H289a4.92,4.92,0,0,1-5-4.83V39.83A4.92,4.92,0,0,1,289,35h44A4.92,4.92,0,0,1,338,39.83Z"/><path class="cls-1" d="M338,217.64v42.53a4.92,4.92,0,0,1-5,4.83H289a4.92,4.92,0,0,1-5-4.83V217.64a4.91,4.91,0,0,1,5-4.82h44A4.91,4.91,0,0,1,338,217.64Z"/><path class="cls-1" d="M338,217.64v42.53a4.92,4.92,0,0,1-5,4.83H289a4.92,4.92,0,0,1-5-4.83V217.64a4.91,4.91,0,0,1,5-4.82h44A4.91,4.91,0,0,1,338,217.64Z"/><path class="cls-1" d="M419,39.83V82.36a4.91,4.91,0,0,1-5,4.82H370a4.91,4.91,0,0,1-5-4.82V39.83A4.92,4.92,0,0,1,370,35h44A4.92,4.92,0,0,1,419,39.83Z"/></svg>